<?xml version="1.0" encoding="utf-8"?>
<!-- Generator: Adobe Illustrator 22.0.0, SVG Export Plug-In . SVG Version: 6.00 Build 0)  -->
<svg version="1.1" id="Layer_1" xmlns="http://www.w3.org/2000/svg" xmlns:xlink="http://www.w3.org/1999/xlink" x="0px" y="0px"
	 viewBox="0 0 148.9 69" style="enable-background:new 0 0 148.9 69;" xml:space="preserve">
<style type="text/css">
	.st0{fill:#020100;}
	.st1{fill:#063E47;}
	.st2{fill:#085159;}
	.st3{fill:#0B5A5E;}
	.st4{fill:#0B6363;}
	.st5{fill:#0E7572;}
	.st6{fill:#138983;}
	.st7{fill:#158980;}
	.st8{fill:#F96F08;}
	.st9{fill:#E87C23;}
	.st10{fill:#CE8D4D;}
	.st11{fill:#B78B5A;}
	.st12{fill:#DD802C;}
	.st13{font-family:'Montserrat';}
	.st14{font-size:9px;}
	.st15{display:none;}
	.st16{display:inline;fill:#063E47;}
</style>
<g id="Layer_1_1_">
	<title>planB</title>
	<g id="Layer_9">
		<rect x="55" y="0.4" class="st0" width="5.8" height="5.8"/>
		<rect x="61.8" y="0.4" class="st0" width="5.8" height="5.8"/>
		<rect x="68.5" y="0.4" class="st0" width="5.8" height="5.8"/>
		<rect x="75.6" y="0.4" class="st0" width="5.8" height="5.8"/>
		<rect x="55" y="7.3" class="st0" width="5.8" height="5.8"/>
		<rect x="55" y="14.1" class="st0" width="5.8" height="5.8"/>
		<rect x="55" y="21" class="st0" width="5.8" height="5.8"/>
		<rect x="55" y="27.8" class="st0" width="5.8" height="5.8"/>
		<rect x="55" y="34.7" class="st0" width="5.8" height="5.8"/>
		<rect x="55" y="41.5" class="st0" width="5.8" height="5.8"/>
		<rect x="61.8" y="41.5" class="st0" width="5.8" height="5.8"/>
		<rect x="68.5" y="41.5" class="st0" width="5.8" height="5.8"/>
		<rect x="82.6" y="34.7" class="st0" width="5.8" height="5.8"/>
		<rect x="82.6" y="27.8" class="st0" width="5.8" height="5.8"/>
		<rect x="75.6" y="21" class="st0" width="5.8" height="5.8"/>
		<rect x="82.6" y="14.1" class="st0" width="5.8" height="5.8"/>
		<rect x="82.6" y="7.3" class="st0" width="5.8" height="5.8"/>
		<rect x="61.8" y="21" class="st0" width="5.8" height="5.8"/>
		<rect x="68.5" y="21" class="st0" width="5.8" height="5.8"/>
		<rect x="75.6" y="41.5" class="st0" width="5.8" height="5.8"/>
	</g>
	<rect x="55.5" class="st1" width="5.8" height="5.8"/>
	<rect x="62.4" class="st1" width="5.8" height="5.8"/>
	<rect x="69" class="st1" width="5.8" height="5.8"/>
	<rect x="76.1" class="st1" width="5.8" height="5.8"/>
	<rect x="55.5" y="6.8" class="st2" width="5.8" height="5.8"/>
	<rect x="55.5" y="13.7" class="st3" width="5.8" height="5.8"/>
	<rect x="55.5" y="20.6" class="st4" width="5.8" height="5.8"/>
	<rect x="55.5" y="27.4" class="st5" width="5.8" height="5.8"/>
	<rect x="55.5" y="34.3" class="st6" width="5.8" height="5.8"/>
	<rect x="55.5" y="41.1" class="st7" width="5.8" height="5.8"/>
	<rect x="62.4" y="41.1" class="st8" width="5.8" height="5.8"/>
	<rect x="69" y="41.1" class="st9" width="5.8" height="5.8"/>
	<rect x="83.2" y="34.3" class="st10" width="5.8" height="5.8"/>
	<rect x="83.2" y="27.4" class="st11" width="5.8" height="5.8"/>
	<rect x="76.1" y="20.6" class="st4" width="5.8" height="5.8"/>
	<rect x="83.2" y="13.7" class="st3" width="5.8" height="5.8"/>
	<rect x="83.2" y="6.8" class="st2" width="5.8" height="5.8"/>
	<rect x="62.4" y="20.6" class="st4" width="5.8" height="5.8"/>
	<rect x="69" y="20.6" class="st4" width="5.8" height="5.8"/>
	<rect x="76.1" y="41.1" class="st12" width="5.8" height="5.8"/>
	<text transform="matrix(1 0 0 1 15.9847 56.4313)" class="st1 st13 st14">PLAN B SOLUTIONS INC.</text>
</g>
<g id="Layer_2_1_" class="st15">
	<rect x="55" y="8.8" class="st16" width="34" height="46.9"/>
</g>
</svg>
